<?xml version="1.0" encoding="utf-8"?>
<!-- Generator: Adobe Illustrator 27.2.0, SVG Export Plug-In . SVG Version: 6.00 Build 0)  -->
<svg version="1.1"
	 id="svg8" xmlns:rdf="http://www.w3.org/1999/02/22-rdf-syntax-ns#" xmlns:dc="http://purl.org/dc/elements/1.1/" xmlns:inkscape="http://www.inkscape.org/namespaces/inkscape" xmlns:svg="http://www.w3.org/2000/svg" xmlns:sodipodi="http://sodipodi.sourceforge.net/DTD/sodipodi-0.dtd" xmlns:cc="http://creativecommons.org/ns#" sodipodi:docname="333.svg"
	 xmlns="http://www.w3.org/2000/svg" xmlns:xlink="http://www.w3.org/1999/xlink" x="0px" y="0px" viewBox="0 0 602.4 602.4"
	 style="enable-background:new 0 0 602.4 602.4;" xml:space="preserve">
<style type="text/css">
	.st0{fill:#D53746;}
	.st1{fill:#FFFFFF;}
</style>
<path class="st0" d="M537.4,91.7c0,0-88.3-38.7-236.1-38.7h-0.1C153.3,53,65,91.7,65,91.7s-7.9,171.2,25.6,268.1
	C149.8,530,301.2,577.8,301.2,577.8h0h0c0,0,151.3-47.8,210.6-218.1C545.3,262.9,537.4,91.7,537.4,91.7"/>
<polygon class="st1" points="458.1,239.3 458.1,333.6 348.1,333.6 348.1,443.7 253.7,443.7 253.7,333.6 143.6,333.6 143.6,239.3 
	253.7,239.3 253.7,129.2 348,129.2 348.1,239.3 "/>
</svg>
