<?xml version="1.0" encoding="utf-8"?>
<!-- Generator: Adobe Illustrator 27.2.0, SVG Export Plug-In . SVG Version: 6.00 Build 0)  -->
<svg version="1.1"
	 id="svg2" xmlns:rdf="http://www.w3.org/1999/02/22-rdf-syntax-ns#" xmlns:inkscape="http://www.inkscape.org/namespaces/inkscape" xmlns:dc="http://purl.org/dc/elements/1.1/" xmlns:cc="http://creativecommons.org/ns#" xmlns:svg="http://www.w3.org/2000/svg" xmlns:sodipodi="http://sodipodi.sourceforge.net/DTD/sodipodi-0.dtd"
	 xmlns="http://www.w3.org/2000/svg" xmlns:xlink="http://www.w3.org/1999/xlink" x="0px" y="0px" viewBox="0 0 1538 906"
	 style="enable-background:new 0 0 1538 906;" xml:space="preserve">
<style type="text/css">
	.st0{fill:#333333;stroke:#333333;stroke-width:3.2147;}
	.st1{fill:#333333;stroke:#333333;stroke-width:1.7741;}
	.st2{opacity:0.89;fill:#1A1A1A;enable-background:new    ;}
	.st3{fill:#0055D4;}
	.st4{fill:#D40000;}
	.st5{opacity:0.79;enable-background:new    ;}
	.st6{opacity:3.999999e-02;fill:#FFFFFF;enable-background:new    ;}
	.st7{opacity:3.999999e-02;fill:#E6E6E6;enable-background:new    ;}
</style>
<sodipodi:namedview  bordercolor="#666666" borderopacity="1" gridtolerance="10" guidetolerance="10" id="namedview9" inkscape:current-layer="svg2" inkscape:cx="500.58975" inkscape:cy="238.92633" inkscape:pageopacity="0" inkscape:pageshadow="2" inkscape:window-height="706" inkscape:window-maximized="1" inkscape:window-width="1366" inkscape:window-x="-8" inkscape:window-y="-8" inkscape:zoom="0.26048565" objecttolerance="10" pagecolor="#ffffff" showgrid="false">
	</sodipodi:namedview>
<g id="text3006" transform="translate(8,-12)">
	<path id="path4124" inkscape:connector-curvature="0" class="st0" d="M199.3,760.2h-22.5l-5.2-14.1h-29.1l-5.6,14.1h-22.2l31.1-81
		h23L199.3,760.2z M165.9,730.1l-8.7-25.8l-8.8,25.8H165.9z"/>
	<path id="path4126" inkscape:connector-curvature="0" class="st0" d="M303.7,760.2h-26.2l-20-31.1v31.1h-21.1v-81h32.7
		c9.6,0,16.6,2.9,21.2,8.6c3.7,4.6,5.6,10.1,5.6,16.3c0,7.2-2.1,12.9-6.4,17.1c-2.7,2.7-6.5,4.6-11.3,5.7L303.7,760.2z M274,705.3
		c0-2.9-1-5.3-3.1-7.3c-2-1.9-5.2-2.8-9.5-2.8h-3.9v20.2h3.9c4.4,0,7.6-0.9,9.5-2.8C273,710.7,274,708.2,274,705.3z"/>
	<path id="path4128" inkscape:connector-curvature="0" class="st0" d="M440.8,760.2h-21.1l-6-46.6l-19.6,46.6h-8.4l-18.7-46.6
		l-6.9,46.6h-20.9l13.8-81h20.8l16.4,43.2l17.4-43.2h20.9L440.8,760.2z"/>
	<path id="path4130" inkscape:connector-curvature="0" class="st0" d="M524.5,760.2h-46.1v-81h46.1v17.6h-25v13.7h23.7v17.6h-23.7
		v14.4h25V760.2z"/>
	<path id="path4132" inkscape:connector-curvature="0" class="st0" d="M617.4,760.2h-46.1v-81h46.1v17.6h-25v13.7h23.7v17.6h-23.7
		v14.4h25V760.2z"/>
	<path id="path4134" inkscape:connector-curvature="0" class="st0" d="M777.3,719.7c0,8.4-2.5,16.2-7.6,23.4
		c-5.1,7.2-11.6,12.1-19.5,14.9c-4.2,1.5-8.5,2.2-12.8,2.2h-31.1v-81h31.1c7.6,0,14.6,2.1,21.1,6.3c6.4,4.1,11.2,9.6,14.7,16.5
		C775.9,707.8,777.3,713.6,777.3,719.7L777.3,719.7z M755.4,719.7c0-5.6-1.6-10.4-4.7-14.6c-4.2-5.5-10.3-8.2-18.6-8.2h-4.8v45.7
		h4.8c8.3,0,14.5-2.7,18.6-8.2C753.9,730.1,755.4,725.3,755.4,719.7L755.4,719.7z"/>
	<path id="path4136" inkscape:connector-curvature="0" class="st0" d="M863.6,760.2h-46.1v-81h46.1v17.6h-25v13.7h23.7v17.6h-23.7
		v14.4h25V760.2z"/>
	<path id="path4138" inkscape:connector-curvature="0" class="st0" d="M999.2,760.2h-46.3v-81h21.1v63.3h25.3V760.2z"/>
	<path id="path4140" inkscape:connector-curvature="0" class="st0" d="M1155.8,760.2h-22.5l-5.2-14.1H1099l-5.6,14.1h-22.2l31.1-81
		h23L1155.8,760.2z M1122.4,730.1l-8.7-25.8l-8.8,25.8H1122.4z"/>
	<path id="path4142" inkscape:connector-curvature="0" class="st0" d="M1213,760.2h-21.1v-81h21.1V760.2z"/>
	<path id="path4144" inkscape:connector-curvature="0" class="st0" d="M1327,760.2h-26.2l-20-31.1v31.1h-21.1v-81h32.7
		c9.6,0,16.6,2.9,21.2,8.6c3.7,4.6,5.6,10.1,5.6,16.3c0,7.2-2.1,12.9-6.4,17.1c-2.7,2.7-6.5,4.6-11.3,5.7L1327,760.2z M1297.3,705.3
		c0-2.9-1-5.3-3.1-7.3c-2-1.9-5.2-2.8-9.5-2.8h-3.9v20.2h3.9c4.4,0,7.6-0.9,9.5-2.8C1296.3,710.7,1297.3,708.2,1297.3,705.3z"/>
</g>
<path id="path3778" inkscape:connector-curvature="0" class="st1" d="M1032.9,666.4l26.9,0.9l-20.6,41.2h-17.9L1032.9,666.4z"/>
<path id="path3780" inkscape:connector-curvature="0" sodipodi:nodetypes="ccccc" class="st1" d="M503.7,654.8l5-20.6h21.5
	l-16.1,20.6L503.7,654.8z"/>
<g id="g4105" transform="matrix(2.1467325,0,0,2.1467325,-65.999827,-652.51476)">
	<path id="path2996" inkscape:connector-curvature="0" sodipodi:nodetypes="ccccccc" class="st2" d="M227,570.1
		c11.8-23.6,32.5-33.6,32.5-33.6c21.8-8.3,26-19.5,26-19.5c12.4-23,10-31.3,10-31.3c-53.1,27.7-64.9,43.1-64.9,43.1
		c-3.7,3.1-4.3,13.4-4.3,13.4C222.4,563.5,227,570.1,227,570.1L227,570.1z"/>
	<path id="path3000" inkscape:connector-curvature="0" sodipodi:nodetypes="cccc" class="st3" d="M62.3,365.9
		c259.1,5.9,291.6,97.4,291.6,97.4l-43.1,15.3C231.1,367.1,62.3,365.9,62.3,365.9z"/>
	<path id="path3002" inkscape:connector-curvature="0" sodipodi:nodetypes="ccccsc" class="st4" d="M723.1,480.7
		c0,0-172-41-281.8-33.3c0,0-80.3,0-92.7,53.1c-5.3,14.2,27.4,3.2,27.4,3.2c77-23.3,154.5-28.7,232.5-26.6
		C675.5,478.9,723.1,480.7,723.1,480.7z"/>
	<path id="path3004" inkscape:connector-curvature="0" sodipodi:nodetypes="ccczc" class="st5" d="M417.1,528.2l24.8-16.5
		c74.4,56.4,73.3,73.9,73.3,73.9c-6.9,3-35.6-26.4-62.3-39.1S417.1,528.2,417.1,528.2L417.1,528.2z"/>
	<path id="path3002-5" inkscape:connector-curvature="0" sodipodi:nodetypes="ccccsc" class="st6" d="M625.9,471.7
		c0,0-112.1-19.7-183.6-16c0,0-52.3,0-60.4,25.5c-3.5,6.8,17.8,1.5,17.8,1.5C450,471.6,500.4,469,551.3,470
		C595,470.9,625.9,471.7,625.9,471.7L625.9,471.7z"/>
	<path id="path3002-5-9" inkscape:connector-curvature="0" sodipodi:nodetypes="ccccsc" class="st7" d="M590.3,467.6
		c0,0-93.2-11-152.5-7.5c0,0-43.4,0.8-49.8,17.5c-2.8,4.5,14.8,0.7,14.8,0.7c41.5-8.1,83.4-10.6,125.5-10.7
		C564.6,467.5,590.3,467.6,590.3,467.6z"/>
	<g id="g4047" transform="matrix(-0.64701856,-0.2934675,-0.23193442,0.72666362,621.76297,118.37667)">
		<path id="path3002-5-5" inkscape:connector-curvature="0" sodipodi:nodetypes="ccccsc" class="st6" d="M487,556.4
			c0,0-112.1-19.7-183.6-16c0,0-52.3,0-60.4,25.5c-3.5,6.8,17.8,1.5,17.8,1.5c50.2-11.2,100.7-13.8,151.5-12.8
			C456,555.5,487,556.4,487,556.4L487,556.4z"/>
		<path id="path3002-5-9-8" inkscape:connector-curvature="0" sodipodi:nodetypes="ccccsc" class="st7" d="M451.4,552.2
			c0,0-93.2-11-152.5-7.5c0,0-43.4,0.8-49.8,17.5c-2.8,4.5,14.8,0.7,14.8,0.7c41.5-8.1,83.4-10.6,125.5-10.7
			C425.6,552.1,451.4,552.2,451.4,552.2z"/>
	</g>
</g>
</svg>
