<?xml version="1.0" encoding="UTF-8" standalone="no"?>
<!-- Created with Inkscape (http://www.inkscape.org/) -->

<svg
   xmlns:dc="http://purl.org/dc/elements/1.1/"
   xmlns:cc="http://creativecommons.org/ns#"
   xmlns:rdf="http://www.w3.org/1999/02/22-rdf-syntax-ns#"
   xmlns:svg="http://www.w3.org/2000/svg"
   xmlns="http://www.w3.org/2000/svg"
   version="1.0"
   width="636.58655"
   height="463.0954"
   id="Layer_1"
   xml:space="preserve"><defs
     id="defs2375"><marker
       markerUnits="strokeWidth"
       refX="0"
       refY="5"
       markerWidth="4"
       markerHeight="3"
       orient="auto"
       viewBox="0 0 10 10"
       id="marker5513"><path
         d="M 0,0 10,5 0,10 0,0 z"
         id="path5515" /></marker><marker
       markerUnits="strokeWidth"
       refX="10"
       refY="5"
       markerWidth="4"
       markerHeight="3"
       orient="auto"
       viewBox="0 0 10 10"
       id="marker5517"><path
         d="M 10,0 0,5 10,10 10,0 z"
         id="path5519" /></marker><marker
       markerUnits="strokeWidth"
       refX="10"
       refY="5"
       markerWidth="4"
       markerHeight="3"
       orient="auto"
       viewBox="0 0 10 10"
       id="ArrowStart"><path
         d="M 10,0 0,5 10,10 10,0 z"
         id="path10" /></marker><marker
       markerUnits="strokeWidth"
       refX="0"
       refY="5"
       markerWidth="4"
       markerHeight="3"
       orient="auto"
       viewBox="0 0 10 10"
       id="ArrowEnd"><path
         d="M 0,0 10,5 0,10 0,0 z"
         id="path7" /></marker></defs><g
     transform="translate(-321.7067,-168.45736)"
     id="g3092"><g
       transform="translate(-761.31871,800.2856)"
       id="g2994"
       style="fill:#cccccc"><g
         transform="translate(3143.3667,1733.4629)"
         id="g2954"
         style="fill:#cccccc"><path
           d="m -1728.1446,-2118.443 c 35.029,12.1333 70.214,46.9186 100.4829,46.9186 20.6982,0 12.6234,-19.4301 4.5799,-19.4301 -18.213,0 -56.6188,-30.332 -95.6,-41.7764 0,0 -9.4628,14.2879 -9.4628,14.2879 z"
           id="path2956"
           style="fill:#cccccc;fill-opacity:1;stroke:#000000;stroke-width:2;stroke-linecap:round;stroke-linejoin:round;stroke-miterlimit:4;stroke-opacity:1;stroke-dasharray:none;stroke-dashoffset:0" /><path
           d="m -1735.7613,-2121.1015 c 4.041,-2.6618 6.1745,-4.5973 14.4609,-4.5973 40.7503,0 102.1438,54.9595 130.5382,54.9595 20.6982,0 12.6234,-19.4301 4.5799,-19.4301 -22.4478,0 -75.5705,-46.0772 -122.638,-46.0772 -11.2029,0 -19.8028,2.2645 -27.397,8.9347 0,0 0.456,6.2104 0.456,6.2104 z"
           id="path2958"
           style="fill:#cccccc;fill-opacity:1;stroke:#000000;stroke-width:2;stroke-linecap:round;stroke-linejoin:round;stroke-miterlimit:4;stroke-opacity:1;stroke-dasharray:none;stroke-dashoffset:0" /><path
           d="m -1723.5194,-2127.7633 c 4.2945,-2.6617 12.4617,-4.0421 21.268,-4.0421 43.3071,0 112.0924,56.625 142.2683,56.625 21.9969,0 14.9114,-19.4302 6.3632,-19.4302 -23.8562,0 -90.6576,-51.0735 -140.6782,-51.0735 -11.9059,0 -21.6353,5.0403 -29.706,11.7104 0,0 0.4847,6.2104 0.4847,6.2104 z"
           id="path2960"
           style="fill:#cccccc;fill-opacity:1;stroke:#000000;stroke-width:2;stroke-linecap:round;stroke-linejoin:round;stroke-miterlimit:4;stroke-opacity:1;stroke-dasharray:none;stroke-dashoffset:0" /><path
           d="m -1709.9695,-2134.9802 c 4.654,-2.6618 11.0983,-4.5973 20.6417,-4.5973 46.9318,0 121.4743,55.5147 154.1759,55.5147 25.0412,0 16.1595,-19.4302 6.8958,-19.4302 -40.2847,0 -98.2455,-51.0735 -152.4528,-51.0735 -12.9024,0 -23.4461,5.0403 -32.1923,11.7105 0,0 2.9317,7.8758 2.9317,7.8758 z"
           id="path2962"
           style="fill:#cccccc;fill-opacity:1;stroke:#000000;stroke-width:2;stroke-linecap:round;stroke-linejoin:round;stroke-miterlimit:4;stroke-opacity:1;stroke-dasharray:none;stroke-dashoffset:0" /><path
           d="m -1712.5971,-2133.2739 c 5.4953,-5.702 11.2062,-16.2963 34.9759,-16.2963 41.0952,0 126.3005,55.5148 164.0649,55.5148 21.6627,0 19.6393,-19.4302 9.7771,-19.4302 -51.7363,0 -106.9569,-51.0735 -164.6663,-51.0735 -20.4157,0 -35.2844,11.1344 -46.5673,22.2058 0,0 2.4157,9.0794 2.4157,9.0794 z"
           id="path2964"
           style="fill:#cccccc;fill-opacity:1;stroke:#000000;stroke-width:2;stroke-linecap:round;stroke-linejoin:round;stroke-miterlimit:4;stroke-opacity:1;stroke-dasharray:none;stroke-dashoffset:0" /><path
           d="m -1701.9584,-2144.932 c 5.702,-5.702 13.3558,-16.2963 38.0195,-16.2963 35.1371,0 124.1559,53.2942 167.932,53.2942 27.6617,0 23.8342,-19.4302 13.601,-19.4302 -63.4624,0 -114.4361,-46.0772 -174.3161,-46.0772 -21.1837,0 -36.0356,8.3587 -47.7429,19.4301 0,0 2.5065,9.0794 2.5065,9.0794 z"
           id="path2966"
           style="fill:#cccccc;fill-opacity:1;stroke:#000000;stroke-width:2;stroke-linecap:round;stroke-linejoin:round;stroke-miterlimit:4;stroke-opacity:1;stroke-dasharray:none;stroke-dashoffset:0" /><path
           d="m -1688.0797,-2160.4761 c 8.0546,-6.0959 11.9482,-11.3673 37.7895,-11.3673 37.9085,0 115.5071,49.4754 167.0517,49.4754 32.0973,0 30.496,-22.2058 20.2628,-22.2058 -6.6675,0 -11.3754,0 -27.2021,0 -40.3334,0 -110.6688,-44.4118 -152.6655,-44.4118 -21.1837,0 -36.0356,8.3587 -47.7429,19.43 0,0 2.5065,9.0795 2.5065,9.0795 z"
           id="path2968"
           style="fill:#cccccc;fill-opacity:1;stroke:#000000;stroke-width:2;stroke-linecap:round;stroke-linejoin:round;stroke-miterlimit:4;stroke-opacity:1;stroke-dasharray:none;stroke-dashoffset:0" /><path
           d="m -1562.9021,-2163.7264 c 8.1066,2.6838 -8.9104,16.5445 -19.7553,12.1795 11.5375,4.8619 -7.8094,13.8982 -21.3256,8.3609 12.1184,5.062 -3.8445,15.3515 -18.3843,9.1768 14.6253,6.7796 -0.7907,14.5462 -18.0591,6.8243 16.9981,7.334 -5.3944,13.5931 -18.0591,7.4132 10.948,5.3607 -8.9937,12.6802 -20.6386,6.5637 10.7529,5.585 -8.3741,15.6768 -24.6182,6.1496"
           id="path2970"
           style="fill:#cccccc;fill-opacity:1;stroke:#000000;stroke-width:2;stroke-linecap:round;stroke-linejoin:round;stroke-miterlimit:4;stroke-opacity:1;stroke-dasharray:none;stroke-dashoffset:0" /><path
           d="m -1739.4389,-2123.4783 c 49.5579,0 49.21,-60.511 106.5883,-60.511 37.9085,0 105.8396,46.0772 157.3842,46.0772 31.5422,0 36.0475,-23.3162 25.8143,-23.3162 -6.6675,0 -10.8203,3.3309 -26.647,3.3309 -52.5428,0 -118.996,-38.8603 -160.9927,-38.8603 -62.7223,0 -67.7149,65.5074 -102.1471,65.5074 l 0,7.772 z"
           id="path2972"
           style="fill:#cccccc;fill-opacity:1;stroke:#000000;stroke-width:2;stroke-linecap:round;stroke-linejoin:round;stroke-miterlimit:4;stroke-opacity:1;stroke-dasharray:none;stroke-dashoffset:0" /></g><g
         transform="matrix(-1,0,0,1,-340.72936,1733.4629)"
         id="g2974"
         style="fill:#cccccc"><path
           d="m -1728.1446,-2118.443 c 35.029,12.1333 70.214,46.9186 100.4829,46.9186 20.6982,0 12.6234,-19.4301 4.5799,-19.4301 -18.213,0 -56.6188,-30.332 -95.6,-41.7764 0,0 -9.4628,14.2879 -9.4628,14.2879 z"
           id="path2976"
           style="fill:#cccccc;fill-opacity:1;stroke:#000000;stroke-width:2;stroke-linecap:round;stroke-linejoin:round;stroke-miterlimit:4;stroke-opacity:1;stroke-dasharray:none;stroke-dashoffset:0" /><path
           d="m -1735.7613,-2121.1015 c 4.041,-2.6618 6.1745,-4.5973 14.4609,-4.5973 40.7503,0 102.1438,54.9595 130.5382,54.9595 20.6982,0 12.6234,-19.4301 4.5799,-19.4301 -22.4478,0 -75.5705,-46.0772 -122.638,-46.0772 -11.2029,0 -19.8028,2.2645 -27.397,8.9347 0,0 0.456,6.2104 0.456,6.2104 z"
           id="path2978"
           style="fill:#cccccc;fill-opacity:1;stroke:#000000;stroke-width:2;stroke-linecap:round;stroke-linejoin:round;stroke-miterlimit:4;stroke-opacity:1;stroke-dasharray:none;stroke-dashoffset:0" /><path
           d="m -1723.5194,-2127.7633 c 4.2945,-2.6617 12.4617,-4.0421 21.268,-4.0421 43.3071,0 112.0924,56.625 142.2683,56.625 21.9969,0 14.9114,-19.4302 6.3632,-19.4302 -23.8562,0 -90.6576,-51.0735 -140.6782,-51.0735 -11.9059,0 -21.6353,5.0403 -29.706,11.7104 0,0 0.4847,6.2104 0.4847,6.2104 z"
           id="path2980"
           style="fill:#cccccc;fill-opacity:1;stroke:#000000;stroke-width:2;stroke-linecap:round;stroke-linejoin:round;stroke-miterlimit:4;stroke-opacity:1;stroke-dasharray:none;stroke-dashoffset:0" /><path
           d="m -1709.9695,-2134.9802 c 4.654,-2.6618 11.0983,-4.5973 20.6417,-4.5973 46.9318,0 121.4743,55.5147 154.1759,55.5147 25.0412,0 16.1595,-19.4302 6.8958,-19.4302 -40.2847,0 -98.2455,-51.0735 -152.4528,-51.0735 -12.9024,0 -23.4461,5.0403 -32.1923,11.7105 0,0 2.9317,7.8758 2.9317,7.8758 z"
           id="path2982"
           style="fill:#cccccc;fill-opacity:1;stroke:#000000;stroke-width:2;stroke-linecap:round;stroke-linejoin:round;stroke-miterlimit:4;stroke-opacity:1;stroke-dasharray:none;stroke-dashoffset:0" /><path
           d="m -1712.5971,-2133.2739 c 5.4953,-5.702 11.2062,-16.2963 34.9759,-16.2963 41.0952,0 126.3005,55.5148 164.0649,55.5148 21.6627,0 19.6393,-19.4302 9.7771,-19.4302 -51.7363,0 -106.9569,-51.0735 -164.6663,-51.0735 -20.4157,0 -35.2844,11.1344 -46.5673,22.2058 0,0 2.4157,9.0794 2.4157,9.0794 z"
           id="path2984"
           style="fill:#cccccc;fill-opacity:1;stroke:#000000;stroke-width:2;stroke-linecap:round;stroke-linejoin:round;stroke-miterlimit:4;stroke-opacity:1;stroke-dasharray:none;stroke-dashoffset:0" /><path
           d="m -1701.9584,-2144.932 c 5.702,-5.702 13.3558,-16.2963 38.0195,-16.2963 35.1371,0 124.1559,53.2942 167.932,53.2942 27.6617,0 23.8342,-19.4302 13.601,-19.4302 -63.4624,0 -114.4361,-46.0772 -174.3161,-46.0772 -21.1837,0 -36.0356,8.3587 -47.7429,19.4301 0,0 2.5065,9.0794 2.5065,9.0794 z"
           id="path2986"
           style="fill:#cccccc;fill-opacity:1;stroke:#000000;stroke-width:2;stroke-linecap:round;stroke-linejoin:round;stroke-miterlimit:4;stroke-opacity:1;stroke-dasharray:none;stroke-dashoffset:0" /><path
           d="m -1688.0797,-2160.4761 c 8.0546,-6.0959 11.9482,-11.3673 37.7895,-11.3673 37.9085,0 115.5071,49.4754 167.0517,49.4754 32.0973,0 30.496,-22.2058 20.2628,-22.2058 -6.6675,0 -11.3754,0 -27.2021,0 -40.3334,0 -110.6688,-44.4118 -152.6655,-44.4118 -21.1837,0 -36.0356,8.3587 -47.7429,19.43 0,0 2.5065,9.0795 2.5065,9.0795 z"
           id="path2988"
           style="fill:#cccccc;fill-opacity:1;stroke:#000000;stroke-width:2;stroke-linecap:round;stroke-linejoin:round;stroke-miterlimit:4;stroke-opacity:1;stroke-dasharray:none;stroke-dashoffset:0" /><path
           d="m -1562.9021,-2163.7264 c 8.1066,2.6838 -8.9104,16.5445 -19.7553,12.1795 11.5375,4.8619 -7.8094,13.8982 -21.3256,8.3609 12.1184,5.062 -3.8445,15.3515 -18.3843,9.1768 14.6253,6.7796 -0.7907,14.5462 -18.0591,6.8243 16.9981,7.334 -5.3944,13.5931 -18.0591,7.4132 10.948,5.3607 -8.9937,12.6802 -20.6386,6.5637 10.7529,5.585 -8.3741,15.6768 -24.6182,6.1496"
           id="path2990"
           style="fill:#cccccc;fill-opacity:1;stroke:#000000;stroke-width:2;stroke-linecap:round;stroke-linejoin:round;stroke-miterlimit:4;stroke-opacity:1;stroke-dasharray:none;stroke-dashoffset:0" /><path
           d="m -1739.4389,-2123.4783 c 49.5579,0 49.21,-60.511 106.5883,-60.511 37.9085,0 105.8396,46.0772 157.3842,46.0772 31.5422,0 36.0475,-23.3162 25.8143,-23.3162 -6.6675,0 -10.8203,3.3309 -26.647,3.3309 -52.5428,0 -118.996,-38.8603 -160.9927,-38.8603 -62.7223,0 -67.7149,65.5074 -102.1471,65.5074 l 0,7.772 z"
           id="path2992"
           style="fill:#cccccc;fill-opacity:1;stroke:#000000;stroke-width:2;stroke-linecap:round;stroke-linejoin:round;stroke-miterlimit:4;stroke-opacity:1;stroke-dasharray:none;stroke-dashoffset:0" /></g></g><g
       transform="translate(-1182.0149,371.67694)"
       id="g3022"
       style="fill:#cccccc"><path
         d="m 1808.1949,26.88279 c 7.1859,34.790124 -8.1873,110.98532 -8.8328,150.73303 -0.7484,46.08652 12.4295,61.15258 19.2336,61.26311 6.8042,0.11041 20.4643,-14.51977 21.2127,-60.6064 0.6454,-39.74759 -12.2458,-116.401832 -3.934,-150.940277"
         id="path3368"
         style="fill:#cccccc;fill-opacity:1;fill-rule:nonzero;stroke:#000000;stroke-width:2;stroke-linecap:butt;stroke-linejoin:round;stroke-miterlimit:4;stroke-opacity:1;stroke-dasharray:none;stroke-dashoffset:0" /><path
         d="m 1835.8349,29.763333 c -7.1859,-34.7902437 8.1874,-110.985443 8.8328,-150.733033 0.7484,-46.08663 -12.4295,-61.1527 -19.2336,-61.26311 -6.8042,-0.11053 -20.4643,14.51965 -21.2127,60.60629 -0.6454,39.747586 12.2458,116.4018206 3.934,150.940389"
         id="path3370"
         style="fill:#cccccc;fill-opacity:1;fill-rule:nonzero;stroke:#000000;stroke-width:2;stroke-linecap:butt;stroke-linejoin:round;stroke-miterlimit:4;stroke-opacity:1;stroke-dasharray:none;stroke-dashoffset:0" /><path
         d="m 1832.7683,37.928596 c -12.1707,43.035512 -26.989,109.432214 -27.4973,140.734744 -0.5582,34.37159 6.9121,54.98218 15.3744,55.11961 8.7654,0.14223 16.5146,-25.86052 17.9388,-37.26852"
         id="path3372"
         style="fill:#cccccc;fill-opacity:1;fill-rule:nonzero;stroke:#000000;stroke-width:2;stroke-linecap:round;stroke-linejoin:round;stroke-miterlimit:4;stroke-opacity:1;stroke-dasharray:none;stroke-dashoffset:0" /><path
         d="m 1811.2615,18.717407 c 12.1706,-43.035388 26.989,-109.43209 27.4973,-140.734617 0.5582,-34.3716 -6.9121,-54.98218 -15.3744,-55.11961 -8.7654,-0.14235 -16.5146,25.86051 -17.9389,37.26851"
         id="path3374"
         style="fill:#cccccc;fill-opacity:1;fill-rule:nonzero;stroke:#000000;stroke-width:2;stroke-linecap:round;stroke-linejoin:round;stroke-miterlimit:4;stroke-opacity:1;stroke-dasharray:none;stroke-dashoffset:0" /><path
         d="m 351.14888,419.30609 a 7.6516542,7.6516542 0 1 1 -15.30331,0 7.6516542,7.6516542 0 1 1 15.30331,0 z"
         transform="matrix(0.03467947,-2.1356066,2.1356066,0.03467947,914.62974,747.35654)"
         id="path3376"
         style="fill:#cccccc;fill-opacity:1;fill-rule:nonzero;stroke:#000000;stroke-width:0.93637866;stroke-linecap:butt;stroke-linejoin:round;stroke-miterlimit:4;stroke-opacity:1;stroke-dasharray:none;stroke-dashoffset:0" /><path
         d="m 351.14888,419.30609 a 7.6516542,7.6516542 0 1 1 -15.30331,0 7.6516542,7.6516542 0 1 1 15.30331,0 z"
         transform="matrix(0.02015165,-1.2409606,1.2409606,0.02015165,1294.7505,446.13977)"
         id="path3378"
         style="fill:#cccccc;fill-opacity:1;fill-rule:nonzero;stroke:#000000;stroke-width:1.61144221;stroke-linecap:butt;stroke-linejoin:round;stroke-miterlimit:4;stroke-opacity:1;stroke-dasharray:none;stroke-dashoffset:0" /></g><g
       transform="matrix(0.1775506,-0.1775506,-0.1775506,-0.1775506,825.6135,345.47134)"
       id="g2625"><g
         id="g2607"><rect
           width="246.17801"
           height="246.17802"
           x="-922.44202"
           y="369.14783"
           id="rect2601"
           style="fill:#dc143c;fill-opacity:1;fill-rule:nonzero;stroke:none" /><rect
           width="240"
           height="240.00002"
           x="-916.26404"
           y="369.14783"
           id="rect2605"
           style="fill:#ffffff;fill-opacity:1;fill-rule:nonzero;stroke:none" /></g><rect
         width="246.17801"
         height="246.17802"
         x="-922.44202"
         y="122.9698"
         id="rect2595"
         style="fill:#dc143c;fill-opacity:1;fill-rule:nonzero;stroke:none" /><rect
         width="246.17801"
         height="246.17802"
         x="-676.26404"
         y="369.14783"
         id="rect2599"
         style="fill:#dc143c;fill-opacity:1;fill-rule:nonzero;stroke:none" /><g
         transform="matrix(-1,0,0,-1,-1352.528,738.29565)"
         id="g2611"><rect
           width="246.17801"
           height="246.17802"
           x="-922.44202"
           y="369.14783"
           id="rect2613"
           style="fill:#dc143c;fill-opacity:1;fill-rule:nonzero;stroke:none" /><rect
           width="240"
           height="240.00002"
           x="-916.26404"
           y="369.14783"
           id="rect2615"
           style="fill:#ffffff;fill-opacity:1;fill-rule:nonzero;stroke:none" /></g><rect
         width="200"
         height="200.00002"
         x="-876.26404"
         y="169.14781"
         id="rect2617"
         style="fill:#ffffff;fill-opacity:1;fill-rule:nonzero;stroke:none" /><rect
         width="200"
         height="200.00002"
         x="-876.26404"
         y="369.14783"
         id="rect2619"
         style="fill:#dc143c;fill-opacity:1;fill-rule:nonzero;stroke:none" /><rect
         width="200"
         height="200.00002"
         x="-676.26404"
         y="369.14783"
         id="rect2621"
         style="fill:#ffffff;fill-opacity:1;fill-rule:nonzero;stroke:none" /><rect
         width="200"
         height="200.00002"
         x="-676.26398"
         y="169.14781"
         id="rect2623"
         style="fill:#dc143c;fill-opacity:1;fill-rule:nonzero;stroke:none" /></g></g><metadata
     id="metadata3040"><rdf:RDF><cc:Work
         rdf:about=""><dc:title></dc:title></cc:Work></rdf:RDF></metadata></svg>